{"asset": {"version": "2.0"}, "scene": 0, "scenes": [{"nodes": [0]}], "nodes": [{"name": "boulder_01", "mesh": 0}], "meshes": [{"primitives": [{"attributes": {"POSITION": 0, "NORMAL": 1, "TEXCOORD_0": 2}, "indices": 3, "material": 0}]}], "materials": [{"doubleSided": true, "name": "boulder_01", "normalTexture": {"index": 0}, "pbrMetallicRoughness": {"baseColorTexture": {"index": 1}, "metallicFactor": 0, "metallicRoughnessTexture": {"index": 2}}}], "textures": [{"sampler": 0, "source": 0}, {"sampler": 0, "source": 1}, {"sampler": 0, "source": 2}], "images": [{"mimeType": "image/jpeg", "name": "boulder_01_nor_gl", "uri": "textures/boulder_01_nor_gl_1k.jpg"}, {"mimeType": "image/jpeg", "name": "boulder_01_diff", "uri": "textures/boulder_01_diff_1k.jpg"}, {"mimeType": "image/jpeg", "name": "boulder_01_rough", "uri": "textures/boulder_01_arm_1k.jpg"}], "samplers": [{"magFilter": 9729, "minFilter": 9987}], "buffers": [{"uri": "boulder_01_lo.bin", "byteLength": 101216}], "bufferViews": [{"buffer": 0, "byteOffset": 0, "byteLength": 27156, "target": 34962}, {"buffer": 0, "byteOffset": 27156, "byteLength": 27156, "target": 34962}, {"buffer": 0, "byteOffset": 54312, "byteLength": 18104, "target": 34962}, {"buffer": 0, "byteOffset": 72416, "byteLength": 28800, "target": 34963}], "accessors": [{"bufferView": 0, "componentType": 5126, "count": 2263, "type": "VEC3", "min": [-0.7462673783302307, -0.0717543363571167, -0.9440956115722656], "max": [0.5267286896705627, 0.9263400435447693, 0.8814213871955872]}, {"bufferView": 1, "componentType": 5126, "count": 2263, "type": "VEC3"}, {"bufferView": 2, "componentType": 5126, "count": 2263, "type": "VEC2"}, {"bufferView": 3, "componentType": 5125, "count": 7200, "type": "SCALAR"}]}