{"asset": {"version": "2.0"}, "scene": 0, "scenes": [{"nodes": [0]}], "nodes": [{"name": "namaqualand_boulder_02", "mesh": 0}], "meshes": [{"primitives": [{"attributes": {"POSITION": 0, "NORMAL": 1, "TEXCOORD_0": 2}, "indices": 3, "material": 0}]}], "materials": [{"doubleSided": true, "name": "boulder_02", "normalTexture": {"index": 0}, "pbrMetallicRoughness": {"baseColorTexture": {"index": 1}, "metallicFactor": 0, "metallicRoughnessTexture": {"index": 2}}}], "textures": [{"sampler": 0, "source": 0}, {"sampler": 0, "source": 1}, {"sampler": 0, "source": 2}], "images": [{"mimeType": "image/jpeg", "name": "boulder_02_nor_gl", "uri": "textures/namaqualand_boulder_02_nor_gl_1k.jpg"}, {"mimeType": "image/jpeg", "name": "boulder_02_diff", "uri": "textures/namaqualand_boulder_02_diff_1k.jpg"}, {"mimeType": "image/jpeg", "name": "boulder_02_rough", "uri": "textures/namaqualand_boulder_02_arm_1k.jpg"}], "samplers": [{"magFilter": 9729, "minFilter": 9987}], "buffers": [{"uri": "namaqualand_boulder_02_lo.bin", "byteLength": 95392}], "bufferViews": [{"buffer": 0, "byteOffset": 0, "byteLength": 24972, "target": 34962}, {"buffer": 0, "byteOffset": 24972, "byteLength": 24972, "target": 34962}, {"buffer": 0, "byteOffset": 49944, "byteLength": 16648, "target": 34962}, {"buffer": 0, "byteOffset": 66592, "byteLength": 28800, "target": 34963}], "accessors": [{"bufferView": 0, "componentType": 5126, "count": 2081, "type": "VEC3", "min": [-1.1766444444656372, -0.04301726818084717, -0.6086928844451904], "max": [1.3306596279144287, 0.8189263939857483, 0.6205596923828125]}, {"bufferView": 1, "componentType": 5126, "count": 2081, "type": "VEC3"}, {"bufferView": 2, "componentType": 5126, "count": 2081, "type": "VEC2"}, {"bufferView": 3, "componentType": 5125, "count": 7200, "type": "SCALAR"}]}